<svg width="120" height="120" viewBox="0 0 120 120" fill="none" xmlns="http://www.w3.org/2000/svg">
  <!-- Laptop Body -->
  <rect x="20" y="50" width="80" height="40" rx="5" fill="#4B5EAA"/>
  <rect x="20" y="90" width="80" height="10" rx="5" fill="#3A4A8A"/>

  <!-- Laptop Screen -->
  <rect x="25" y="55" width="70" height="30" rx="2" fill="#2C3E50"/>
  
  <!-- Code Symbols on Screen -->
  <path d="M35 65 L38 68 L35 71" stroke="#E0E0E0" stroke-width="1.5" fill="none"/>
  <path d="M40 65 L43 68 L40 71" stroke="#E0E0E0" stroke-width="1.5" fill="none"/>
  <path d="M48 65 H52 M50 65 V71" stroke="#E0E0E0" stroke-width="1.5" fill="none"/>
  <rect x="58" y="65" width="6" height="6" fill="#E0E0E0"/>
  <path d="M68 65 H72 M68 68 H72 M68 71 H72" stroke="#E0E0E0" stroke-width="1.5" fill="none"/>

  <!-- Briefcase -->
  <rect x="90" y="60" width="20" height="30" rx="3" fill="#3A4A8A"/>
  <rect x="95" y="55" width="10" height="5" rx="2" fill="#3A4A8A"/>
  <rect x="90" y="75" width="20" height="2" fill="#2C3E50"/>

  <!-- Glow Effect on Laptop -->
  <circle cx="60" cy="70" r="20" fill="#FFFFFF" opacity="0.1"/>

  <!-- Shadow Underneath -->
  <ellipse cx="60" cy="105" rx="40" ry="5" fill="#000000" opacity="0.2"/>
</svg>